<svg width="25" height="24" viewBox="0 0 25 24" fill="none" xmlns="http://www.w3.org/2000/svg">
<path d="M13.9299 3.51001L15.6899 7.03001C15.9299 7.52001 16.5699 7.99001 17.1099 8.08001L20.2999 8.61001C22.3399 8.95001 22.8199 10.43 21.3499 11.89L18.8699 14.37C18.4499 14.79 18.2199 15.6 18.3499 16.18L19.0599 19.25C19.6199 21.68 18.3299 22.62 16.1799 21.35L13.1899 19.58C12.6499 19.26 11.7599 19.26 11.2099 19.58L8.21992 21.35C6.07992 22.62 4.77992 21.67 5.33992 19.25L6.04992 16.18C6.17992 15.6 5.94992 14.79 5.52992 14.37L3.04992 11.89C1.58992 10.43 2.05992 8.95001 4.09992 8.61001L7.28992 8.08001C7.81992 7.99001 8.45992 7.52001 8.69992 7.03001L10.4599 3.51001C11.4199 1.60001 12.9799 1.60001 13.9299 3.51001Z" fill="#D17842"/>
</svg>
